<svg width="437" height="99" viewBox="0 0 437 99" fill="none" xmlns="http://www.w3.org/2000/svg">
<g clip-path="url(#clip0_4334_5278)">
<path d="M31.9499 7.367L31.9498 7.36156C17.5709 18.4454 15.2924 37.7139 20.6495 54.2288C26.3978 71.9498 42.5484 79.9457 60.191 80.7515C61.6143 80.8165 61.9076 78.6113 60.473 78.5458C43.7687 77.7828 29.2296 70.8 23.0757 54.4372C17.2203 38.868 19.6757 19.6307 33.3101 9.12069C33.4438 9.01478 33.5517 8.87978 33.6254 8.72595C33.6991 8.57212 33.7368 8.40351 33.7355 8.23294C33.7343 8.06237 33.6942 7.89432 33.6183 7.74158C33.5423 7.58883 33.4326 7.4554 33.2973 7.35144L33.2702 7.3316C33.0809 7.1819 32.8449 7.10345 32.6036 7.10992C32.3623 7.11639 32.1309 7.20738 31.9499 7.367V7.367Z" fill="#A8B3C1"/>
<path d="M31.2782 7.07629C16.9798 19.3611 10.5977 40.3898 18.1165 58.0774C21.908 66.8479 28.2856 74.2526 36.3972 79.3023C44.606 84.356 52.8318 84.3226 62.0772 83.296C63.5065 83.1374 63.213 80.9326 61.7905 81.0905C57.5233 81.5643 53.34 82.1825 49.0426 81.665C44.6848 81.1401 40.4539 79.1989 36.7576 76.9232C29.3761 72.3788 23.7678 65.0139 20.1745 57.2334C12.9348 41.5571 18.7838 22.1506 30.8188 10.5062C30.9749 10.6348 31.1614 10.7212 31.3605 10.757C31.5596 10.7927 31.7645 10.7767 31.9556 10.7104C32.1466 10.6441 32.3175 10.5297 32.4516 10.3783C32.5857 10.2269 32.6786 10.0436 32.7214 9.84587C32.8347 9.26292 32.9479 8.67991 33.0612 8.09685C33.0855 7.87982 33.0458 7.66043 32.9469 7.46571C32.8481 7.27099 32.6944 7.10943 32.5049 7.00095C32.3153 6.89247 32.0982 6.84181 31.8802 6.85519C31.6623 6.86858 31.453 6.94544 31.2782 7.07629V7.07629Z" fill="#A8B3C1"/>
<path d="M24.7719 14.9294C22.3111 18.5966 20.5576 22.6916 19.6016 27.0033C17.7415 36.2194 19.2193 44.5225 22.0519 53.3158C24.7319 61.6349 29.7976 68.4825 36.0959 74.4602C42.492 80.5309 50.5066 82.824 58.4787 85.8807C58.6101 86.1118 58.815 86.2922 59.0609 86.3931C59.3068 86.4941 59.5794 86.5097 59.8352 86.4376L60.0994 86.5143C61.4468 86.965 62.2763 84.9894 60.9318 84.452C54.0396 81.6969 46.825 79.9273 40.7581 75.4593C34.3649 70.7047 29.2517 64.4376 25.8771 57.2202C22.3443 49.3701 20.4079 40.7944 21.1077 32.2027C21.4013 28.1562 22.4357 24.198 24.1596 20.5252C25.6189 17.4395 28.86 10.5441 32.479 9.4978C33.858 9.09905 32.9957 7.0464 31.6349 7.43987C28.3834 8.37985 26.4647 12.2892 24.7719 14.9294Z" fill="#A8B3C1"/>
<path d="M60.1803 83.4528L60.221 83.5501C60.0818 84.083 60.0101 84.63 59.8668 85.1637C59.8038 85.3621 59.752 85.5638 59.7116 85.768C59.5495 85.9569 59.4545 86.1942 59.4416 86.4428C59.4287 86.6913 59.4987 86.9372 59.6404 87.1418C59.7822 87.3464 59.9878 87.4983 60.225 87.5735C60.4623 87.6488 60.7179 87.6433 60.9516 87.5578L61.4076 87.3672C61.6786 87.2529 61.8939 87.0369 62.0074 86.7656C62.1209 86.4943 62.1234 86.1893 62.0145 85.9161L61.9738 85.8188C62.1131 85.2859 62.1847 84.7389 62.3281 84.2052C62.4381 83.7954 62.5978 83.4685 62.4184 83.0394L62.2382 82.6087C62.1198 82.3454 61.9037 82.1384 61.6356 82.0315C61.3674 81.9245 61.0682 81.926 60.8011 82.0355C60.534 82.1451 60.3199 82.3542 60.2041 82.6186C60.0882 82.8831 60.0797 83.1822 60.1803 83.4528V83.4528Z" fill="#A8B3C1"/>
</g>
<path d="M11.1684 10.9754C11.2363 12.0795 11.494 13.1636 11.9303 14.1801C12.0444 14.4512 12.2604 14.6667 12.5317 14.7802C12.8031 14.8937 13.1081 14.8962 13.3813 14.7871C15.1438 14.0783 16.9346 13.4612 18.7395 12.8886C17.6266 13.324 16.5157 13.7643 15.4095 14.2168C15.3776 14.2273 15.3467 14.2324 15.3141 14.246L14.8583 14.4366C14.5949 14.555 14.3879 14.7711 14.281 15.0393C14.174 15.3075 14.1755 15.6067 14.285 15.8738C14.3946 16.141 14.6037 16.355 14.8681 16.4709C15.1326 16.5867 15.4317 16.5952 15.7023 16.4947C20.2618 14.6121 24.8938 12.9161 29.4956 11.1424C29.0041 13.0376 28.8317 15.0015 28.9855 16.9534C29.1837 20.825 28.7344 24.9349 29.7773 28.6776C29.8322 28.8131 29.9134 28.9364 30.0162 29.0404C30.119 29.1444 30.2414 29.227 30.3763 29.2834C30.5112 29.3398 30.656 29.369 30.8022 29.3692C30.9484 29.3694 31.0933 29.3406 31.2283 29.2845L31.4407 29.1758C31.6669 29.0819 31.856 28.9163 31.979 28.7046C32.102 28.4928 32.152 28.2465 32.1215 28.0035L32.1744 27.75C32.236 27.5225 32.2082 27.28 32.0968 27.0724C31.9853 26.8647 31.7986 26.7075 31.575 26.6331C31.3499 25.2115 31.2373 23.7745 31.2383 22.3352C31.4718 24.1094 31.8992 25.8526 32.5127 27.5336C32.8833 28.5308 34.6205 28.3872 34.6446 27.2526C34.6944 24.909 34.0931 22.6895 33.9166 20.3607C33.7181 17.7179 33.8978 15.0604 34.4502 12.4684C34.7067 11.7958 34.8839 11.0957 34.9783 10.3822C35.1793 9.69322 35.3969 9.00751 35.65 8.32989C35.727 8.12724 35.7436 7.90663 35.6978 7.69474C35.6521 7.48285 35.5459 7.28874 35.3922 7.13589C35.2385 6.98303 35.0438 6.87796 34.8317 6.83339C34.6195 6.78882 34.399 6.80666 34.1968 6.88473C34.0677 6.9381 33.9367 6.98702 33.8074 7.04004C33.6797 6.80637 33.4712 6.62722 33.2209 6.5361C32.9707 6.44498 32.6959 6.44812 32.4478 6.54494C32.3171 6.58763 32.1851 6.62605 32.0542 6.66823C29.9989 6.13747 27.4915 6.54784 25.5949 6.7936C21.0382 7.38403 16.6565 8.96453 12.1278 9.72927C11.8381 9.77318 11.5765 9.92734 11.3977 10.1595C11.2189 10.3918 11.1368 10.6841 11.1684 10.9754V10.9754ZM32.3048 10.034C32.3392 10.0204 32.3735 10.0065 32.4078 9.99292C32.5457 10.3594 32.5764 10.7575 32.4964 11.1407C32.4723 11.2437 32.4519 11.3474 32.4288 11.4505C32.4067 11.5355 32.3882 11.618 32.3588 11.7077C31.9022 12.9575 31.5088 14.2294 31.18 15.5187C31.0579 13.6228 31.4463 11.7288 32.3048 10.034V10.034ZM19.0099 10.4858C17.1913 11.0425 15.3875 11.6463 13.6067 12.3244C13.5512 12.1289 13.5061 11.9306 13.4715 11.7303C15.3313 11.3758 17.1724 10.94 19.0099 10.4858V10.4858Z" fill="#A8B3C1"/>
<path d="M86.7539 75.5698C86.4258 76.5659 86.0742 77.5503 85.6992 78.5229C85.3125 79.4839 84.9082 80.4448 84.4863 81.4058C84.4395 81.3354 84.252 81.1304 83.9238 80.7905C83.5957 80.4507 83.4082 80.2456 83.3613 80.1753C83.1973 79.9878 83.0332 79.7944 82.8691 79.5952C82.7168 79.396 82.5645 79.1968 82.4121 78.9976C82.1191 78.5757 81.8613 78.1362 81.6387 77.6792C81.416 77.2339 81.2109 76.7651 81.0234 76.2729C80.9883 76.144 80.9414 76.0151 80.8828 75.8862C80.8359 75.769 80.7715 75.6577 80.6895 75.5522C80.502 75.3062 80.1445 75.1714 79.6172 75.1479C79.1016 75.1128 78.7148 75.2183 78.457 75.4644C78.375 75.5464 78.3223 75.646 78.2988 75.7632C78.2871 75.8101 78.2812 75.8569 78.2812 75.9038C78.2812 75.9858 78.293 76.0679 78.3164 76.1499C78.5742 76.9702 78.9082 77.7437 79.3184 78.4702C79.7285 79.2085 80.209 79.9116 80.7598 80.5796C81.1934 81.0952 81.6445 81.5874 82.1133 82.0562C82.5703 82.5366 83.0215 83.0347 83.4668 83.5503C83.0215 84.4058 82.5586 85.2554 82.0781 86.0991C81.5977 86.9312 81.0996 87.7515 80.584 88.5601C80.4902 88.7007 80.4434 88.8296 80.4434 88.9468C80.4551 89.064 80.4902 89.1694 80.5488 89.2632C80.7598 89.5327 81.1406 89.6733 81.6914 89.6851C81.7266 89.6851 81.7559 89.6851 81.7793 89.6851C82.2949 89.6851 82.6465 89.5386 82.834 89.2456C84.1699 87.1597 85.377 84.9976 86.4551 82.7593C87.5332 80.5327 88.459 78.2417 89.2324 75.8862C89.2559 75.8042 89.2676 75.7339 89.2676 75.6753C89.2676 75.6401 89.2676 75.605 89.2676 75.5698C89.2441 75.4878 89.2031 75.4116 89.1445 75.3413C89.0508 75.2241 88.916 75.1362 88.7402 75.0776C88.5645 75.0073 88.377 74.9663 88.1777 74.9546C88.1309 74.9546 88.084 74.9546 88.0371 74.9546C87.7793 74.9546 87.5332 74.9956 87.2988 75.0776C87.0059 75.1831 86.8242 75.3472 86.7539 75.5698ZM100.759 84.5347C100.782 84.3589 100.794 84.1948 100.794 84.0425C100.794 83.562 100.665 83.1812 100.407 82.8999C100.079 82.5249 99.663 82.2495 99.1591 82.0737C98.8779 81.98 98.5966 81.9097 98.3154 81.8628C98.0224 81.8042 97.7412 81.7573 97.4716 81.7222C97.8115 81.4878 98.1279 81.2241 98.4209 80.9312C98.7138 80.6499 98.9834 80.3394 99.2295 79.9995C99.4052 79.7417 99.5634 79.478 99.7041 79.2085C99.833 78.9272 99.9326 78.6284 100.003 78.312C100.085 77.8784 100.044 77.4507 99.8798 77.0288C99.7275 76.6069 99.5107 76.2378 99.2295 75.9214C98.7607 75.3823 98.2099 75.019 97.5771 74.8315C96.9443 74.6323 96.288 74.5269 95.6084 74.5151C95.5263 74.5151 95.4384 74.5151 95.3447 74.5151C94.5947 74.5151 93.8564 74.5854 93.1298 74.7261C92.3095 74.8784 91.5302 75.1538 90.792 75.5522C90.5576 75.6812 90.4404 75.8687 90.4404 76.1147C90.4404 76.1265 90.4404 76.1382 90.4404 76.1499C90.4638 76.4077 90.54 76.6421 90.6689 76.853C90.7861 77.0171 90.9912 77.228 91.2841 77.4858C91.5888 77.7437 91.8642 77.8081 92.1103 77.6792C92.9306 77.2456 93.7978 76.9468 94.7119 76.7827C95.6259 76.6304 96.5341 76.6187 97.4365 76.7476C97.5888 76.771 97.7177 76.812 97.8232 76.8706C97.9404 76.9292 97.9873 77.0464 97.9638 77.2222C97.9287 77.4448 97.8408 77.6558 97.7002 77.855C97.5712 78.0542 97.4365 78.2358 97.2959 78.3999C97.1552 78.564 97.0029 78.728 96.8388 78.8921C96.6748 79.0562 96.5107 79.2144 96.3466 79.3667C95.7373 79.894 95.0634 80.3276 94.3252 80.6675C93.5869 80.9956 92.8427 81.3003 92.0927 81.5815C91.9638 81.6401 91.8642 81.7163 91.7939 81.8101C91.7353 81.8921 91.706 81.9917 91.706 82.1089C91.6943 82.4487 91.8642 82.812 92.2158 83.1987C92.5791 83.5737 92.9072 83.7554 93.2002 83.7437C94.0673 83.7085 94.958 83.6909 95.872 83.6909C96.7744 83.6792 97.6591 83.7554 98.5263 83.9194C98.456 84.1538 98.3447 84.3765 98.1923 84.5874C98.0517 84.7866 97.8994 84.9741 97.7353 85.1499C96.8798 85.9937 95.8603 86.6147 94.6767 87.0132C93.4814 87.3999 92.2978 87.5229 91.1259 87.3823C90.8212 87.3472 90.6396 87.4644 90.581 87.7339C90.5341 87.9917 90.5517 88.2202 90.6337 88.4194C90.7392 88.7007 90.9209 88.9526 91.1787 89.1753C91.4248 89.3979 91.7002 89.5269 92.0048 89.562C92.3564 89.6089 92.7138 89.6323 93.0771 89.6323C93.9326 89.6206 94.788 89.4858 95.6435 89.228C96.8388 88.853 97.9228 88.2847 98.8955 87.5229C99.3525 87.1597 99.7509 86.7202 100.091 86.2046C100.431 85.7007 100.653 85.144 100.759 84.5347ZM113.832 75.605C113.832 75.3003 113.738 75.0132 113.551 74.7437C113.363 74.4624 113.141 74.2515 112.883 74.1108C112.719 74.0288 112.531 73.9878 112.32 73.9878C112.273 73.9878 112.232 73.9878 112.197 73.9878C111.928 74.0112 111.787 74.1753 111.775 74.48C111.752 75.6401 111.764 76.8003 111.81 77.9604C111.869 79.1323 111.892 80.2983 111.881 81.4585C111.881 81.4702 111.881 81.4819 111.881 81.4937C111.881 81.5054 111.881 81.5171 111.881 81.5288C110.721 81.564 109.578 81.6812 108.453 81.8804C107.316 82.0796 106.185 82.314 105.06 82.5835C105.107 81.4937 105.131 80.3979 105.131 79.2964C105.131 78.2065 105.107 77.1167 105.06 76.0269C105.049 75.7104 104.955 75.4175 104.779 75.1479C104.603 74.8784 104.381 74.6733 104.111 74.5327C103.935 74.4272 103.707 74.3804 103.426 74.3921C103.144 74.3921 103.004 74.5503 103.004 74.8667C103.098 77.0581 103.103 79.2495 103.021 81.4409C102.951 83.6323 102.793 85.8179 102.547 87.9976C102.535 88.0444 102.529 88.0854 102.529 88.1206C102.541 88.3784 102.635 88.6304 102.81 88.8765C103.01 89.1577 103.232 89.3687 103.478 89.5093C103.654 89.5913 103.842 89.6323 104.041 89.6323C104.076 89.6323 104.117 89.6323 104.164 89.6323C104.398 89.6089 104.539 89.4448 104.586 89.1401C104.656 88.4722 104.726 87.7925 104.797 87.1011C104.855 86.4214 104.902 85.7476 104.937 85.0796C106.086 84.7866 107.234 84.5171 108.383 84.271C109.531 84.0132 110.691 83.8433 111.863 83.7612C111.863 84.4526 111.851 85.144 111.828 85.8354C111.816 86.5269 111.793 87.2183 111.758 87.9097C111.746 88.2144 111.84 88.5015 112.039 88.771C112.238 89.0522 112.461 89.269 112.707 89.4214C112.906 89.5269 113.135 89.5679 113.392 89.5444C113.65 89.521 113.791 89.3569 113.814 89.0522C113.861 87.9858 113.891 86.9136 113.902 85.8354C113.914 84.7573 113.926 83.6792 113.937 82.6011C113.937 82.437 113.937 82.2729 113.937 82.1089C113.937 81.1011 113.914 80.0991 113.867 79.103C113.82 77.9429 113.809 76.7769 113.832 75.605ZM119.399 84.3237C119.809 83.2925 120.237 82.2729 120.682 81.2651C121.128 80.2456 121.579 79.2319 122.036 78.2241C122.376 79.1968 122.704 80.1694 123.02 81.1421C123.337 82.1147 123.641 83.0933 123.934 84.0776C123.184 84.0073 122.429 83.9897 121.667 84.0249C120.905 84.0718 120.149 84.1714 119.399 84.3237ZM127.292 89.439C126.741 87.353 126.149 85.2847 125.516 83.2339C124.884 81.1714 124.204 79.1323 123.477 77.1167C123.337 76.7417 123.196 76.3491 123.056 75.939C122.915 75.5288 122.692 75.1772 122.388 74.8843C122.224 74.7202 121.983 74.5679 121.667 74.4272C121.585 74.3804 121.503 74.3569 121.421 74.3569C121.233 74.3569 121.081 74.4741 120.964 74.7085C119.956 76.9351 118.966 79.1792 117.993 81.4409C117.009 83.6909 116.194 86.0054 115.55 88.3843C115.526 88.4897 115.515 88.5952 115.515 88.7007C115.515 88.8765 115.561 89.0522 115.655 89.228C115.796 89.5093 115.977 89.7378 116.2 89.9136C116.329 90.019 116.557 90.1304 116.886 90.2476C116.979 90.271 117.061 90.2827 117.132 90.2827C117.319 90.2827 117.442 90.1772 117.501 89.9663C117.63 89.4858 117.77 88.9995 117.923 88.5073C118.075 88.0269 118.233 87.5464 118.397 87.0659C118.432 87.0776 118.468 87.0835 118.503 87.0835C118.538 87.0835 118.579 87.0718 118.626 87.0483C119.587 86.6968 120.565 86.4507 121.561 86.3101C122.557 86.1694 123.559 86.1401 124.567 86.2222C124.684 86.644 124.802 87.0718 124.919 87.5054C125.036 87.939 125.153 88.3667 125.27 88.7886C125.341 89.0815 125.481 89.3569 125.692 89.6147C125.903 89.8726 126.161 90.0542 126.466 90.1597C126.712 90.23 126.929 90.1948 127.116 90.0542C127.257 89.9487 127.327 89.8081 127.327 89.6323C127.327 89.5737 127.315 89.5093 127.292 89.439ZM132.666 74.1108C133.674 74.4155 134.699 74.4976 135.742 74.3569C136.785 74.2163 137.752 73.8589 138.642 73.2847C138.724 73.2261 138.771 73.1323 138.783 73.0034C138.806 72.8628 138.812 72.7456 138.801 72.6519C138.765 72.5112 138.713 72.3647 138.642 72.2124C138.56 72.0601 138.467 71.9312 138.361 71.8257C138.185 71.6382 137.969 71.4741 137.711 71.3335C137.594 71.2749 137.476 71.2456 137.359 71.2456C137.219 71.2456 137.078 71.2925 136.937 71.3862C136.258 71.8081 135.508 72.0776 134.687 72.1948C133.855 72.312 133.053 72.2534 132.279 72.019C132.021 71.9487 131.81 71.9839 131.646 72.1245C131.482 72.2651 131.424 72.4702 131.471 72.7397C131.517 73.0327 131.658 73.314 131.892 73.5835C132.127 73.8413 132.385 74.0171 132.666 74.1108ZM140.242 79.1909C140.312 78.6284 140.377 78.0718 140.435 77.521C140.471 77.2515 140.488 76.9819 140.488 76.7124C140.488 76.4194 140.471 76.1206 140.435 75.8159C140.389 75.5464 140.219 75.2476 139.926 74.9194C139.621 74.5913 139.316 74.4214 139.012 74.4097C138.906 74.4097 138.806 74.4331 138.713 74.48C138.619 74.5269 138.531 74.603 138.449 74.7085C137.664 75.8101 136.867 76.8999 136.058 77.978C135.25 79.0562 134.43 80.1226 133.597 81.1772C133.176 81.6929 132.771 82.2202 132.385 82.7593C131.998 83.2866 131.64 83.8374 131.312 84.4116C131.289 84.4351 131.271 84.4644 131.26 84.4995C131.236 84.5347 131.224 84.564 131.224 84.5874C131.224 83.1577 131.277 81.728 131.383 80.2983C131.488 78.8569 131.64 77.4331 131.84 76.0269C131.887 75.7222 131.799 75.4292 131.576 75.1479C131.353 74.855 131.125 74.6499 130.89 74.5327C130.68 74.4038 130.457 74.3511 130.222 74.3745C129.988 74.4097 129.847 74.5737 129.801 74.8667C129.484 77.105 129.285 79.355 129.203 81.6167C129.18 82.355 129.168 83.0933 129.168 83.8315C129.168 85.3433 129.221 86.855 129.326 88.3667C129.349 88.6245 129.519 88.9233 129.836 89.2632C130.152 89.603 130.469 89.7788 130.785 89.7905C130.785 89.7905 130.791 89.7905 130.803 89.7905C130.896 89.7905 130.984 89.7671 131.066 89.7202C131.16 89.6733 131.242 89.5972 131.312 89.4917C131.652 88.9058 131.974 88.3198 132.279 87.7339C132.596 87.1479 132.918 86.5679 133.246 85.9937C133.574 85.4312 133.926 84.8979 134.301 84.394C134.687 83.8784 135.074 83.3687 135.461 82.8647C135.906 82.3257 136.34 81.7808 136.762 81.23C137.183 80.6792 137.605 80.1226 138.027 79.5601C137.992 79.8999 137.957 80.2339 137.922 80.562C137.887 80.9019 137.851 81.2358 137.816 81.564C137.746 82.6538 137.717 83.7437 137.728 84.8335C137.752 85.9351 137.846 87.0308 138.01 88.1206C138.056 88.4136 138.197 88.689 138.431 88.9468C138.666 89.2163 138.924 89.3921 139.205 89.4741C139.474 89.5562 139.691 89.5269 139.855 89.3862C140.008 89.2339 140.06 89.0229 140.014 88.7534C139.861 87.6987 139.779 86.6382 139.767 85.5718C139.767 84.5171 139.808 83.4565 139.89 82.3901C139.937 81.8628 139.99 81.3296 140.049 80.7905C140.107 80.2515 140.172 79.7183 140.242 79.1909ZM154.792 76.0093C154.698 75.7397 154.522 75.4878 154.264 75.2534C154.018 75.0073 153.743 74.8784 153.438 74.8667C153.063 74.855 152.688 74.8491 152.313 74.8491C150.919 74.8491 149.524 74.937 148.13 75.1128C146.372 75.3472 144.643 75.7222 142.944 76.2378C142.839 76.2729 142.757 76.3257 142.698 76.396C142.639 76.4546 142.598 76.5308 142.575 76.6245C142.563 76.6714 142.557 76.7183 142.557 76.7651C142.557 76.9409 142.616 77.1343 142.733 77.3452C142.886 77.6265 143.079 77.8608 143.313 78.0483C143.466 78.1772 143.63 78.2769 143.805 78.3472C143.97 78.4058 144.128 78.4116 144.28 78.3647C144.737 78.2241 145.194 78.0952 145.651 77.978C146.12 77.8608 146.589 77.7554 147.057 77.6616C147.046 79.4194 147.052 81.1714 147.075 82.9175C147.11 84.6636 147.157 86.4097 147.216 88.1558C147.227 88.4722 147.321 88.7651 147.497 89.0347C147.673 89.3042 147.895 89.5093 148.165 89.6499C148.341 89.7437 148.557 89.7905 148.815 89.7905C148.827 89.7905 148.839 89.7905 148.85 89.7905C149.132 89.7788 149.272 89.6147 149.272 89.2983C149.202 87.4116 149.149 85.519 149.114 83.6206C149.091 81.7339 149.079 79.8413 149.079 77.9429C149.079 77.8608 149.079 77.7847 149.079 77.7144C149.067 77.6323 149.044 77.5562 149.009 77.4858C148.997 77.439 149.003 77.3979 149.026 77.3628C149.038 77.3276 149.061 77.3042 149.096 77.2925C149.964 77.1753 150.831 77.0991 151.698 77.064C152.565 77.0171 153.438 77.0112 154.317 77.0464C154.622 77.0581 154.798 76.9409 154.845 76.6948C154.868 76.6011 154.88 76.5132 154.88 76.4312C154.88 76.2788 154.85 76.1382 154.792 76.0093ZM167.021 84.7983C166.869 84.564 166.67 84.353 166.424 84.1655C166.166 83.9897 165.885 83.9253 165.58 83.9722C164.396 84.1831 163.242 84.5112 162.117 84.9565C160.992 85.4136 159.92 85.9644 158.9 86.6089C158.924 85.9058 158.929 85.2026 158.918 84.4995C158.906 83.7964 158.883 83.0933 158.847 82.3901C159.972 81.9331 161.121 81.5405 162.293 81.2124C163.465 80.8726 164.654 80.6089 165.861 80.4214C166.142 80.3745 166.254 80.1812 166.195 79.8413C166.136 79.5132 166.06 79.2729 165.967 79.1206C165.814 78.8745 165.609 78.6636 165.351 78.4878C165.105 78.3003 164.83 78.2358 164.525 78.2944C163.529 78.4585 162.545 78.6694 161.572 78.9272C160.599 79.1851 159.638 79.4839 158.689 79.8237C158.666 79.4839 158.636 79.144 158.601 78.8042C158.566 78.4644 158.531 78.1304 158.496 77.8022C159.668 77.3921 160.84 77.0054 162.011 76.6421C163.195 76.2905 164.396 75.9917 165.615 75.7456C165.908 75.6987 166.025 75.5112 165.967 75.1831C165.92 74.855 165.844 74.6147 165.738 74.4624C165.574 74.228 165.369 74.0171 165.123 73.8296C164.924 73.6772 164.713 73.6011 164.49 73.6011C164.42 73.6011 164.355 73.6128 164.297 73.6362C163.125 73.8589 161.97 74.146 160.834 74.4976C159.697 74.8374 158.566 75.1948 157.441 75.5698C157.183 75.6636 156.931 75.7339 156.685 75.7808C156.486 75.8159 156.381 75.9741 156.369 76.2554C156.369 76.314 156.375 76.3726 156.386 76.4312C156.621 78.3647 156.773 80.3042 156.844 82.2495C156.914 84.1948 156.885 86.1401 156.756 88.0854C156.732 88.3667 156.867 88.7241 157.16 89.1577C157.453 89.5796 157.781 89.8433 158.144 89.9487C158.226 89.9839 158.308 90.0015 158.39 90.0015C158.426 90.0015 158.461 89.9956 158.496 89.9839C158.613 89.9722 158.724 89.9194 158.83 89.8257C159.99 88.8765 161.256 88.0854 162.627 87.4526C163.998 86.8081 165.427 86.3569 166.916 86.0991C167.162 86.0522 167.285 85.9116 167.285 85.6772C167.285 85.6304 167.279 85.5776 167.267 85.519C167.209 85.1909 167.127 84.9507 167.021 84.7983ZM178.929 82.8999C179.902 83.6147 180.787 84.4409 181.584 85.3784C182.381 86.3042 183.049 87.3062 183.588 88.3843C183.658 88.5249 183.775 88.6362 183.939 88.7183C184.103 88.8003 184.285 88.853 184.484 88.8765C184.777 88.9116 185.076 88.8882 185.381 88.8062C185.685 88.7241 185.896 88.5952 186.013 88.4194C186.06 88.3374 186.09 88.2554 186.101 88.1733C186.101 88.1616 186.101 88.1558 186.101 88.1558C186.101 88.0737 186.078 87.9858 186.031 87.8921C185.398 86.6147 184.613 85.4546 183.675 84.4116C182.738 83.3687 181.701 82.4429 180.564 81.6343C180.904 81.3413 181.244 81.0425 181.584 80.7378C181.912 80.4331 182.234 80.1226 182.55 79.8062C183.172 79.1616 183.763 78.4937 184.326 77.8022C184.877 77.1108 185.416 76.4019 185.943 75.6753C186.013 75.5698 186.06 75.4702 186.084 75.3765C186.095 75.2827 186.084 75.2007 186.049 75.1304C185.978 74.9429 185.802 74.8022 185.521 74.7085C185.275 74.6265 185.029 74.5854 184.783 74.5854C184.736 74.5854 184.689 74.5913 184.642 74.603C184.443 74.6147 184.256 74.6499 184.08 74.7085C183.904 74.7788 183.775 74.8726 183.693 74.9897C183.177 75.7046 182.65 76.4019 182.111 77.0815C181.572 77.7612 180.998 78.4116 180.388 79.0327C180.06 79.3726 179.726 79.6948 179.386 79.9995C179.035 80.3159 178.683 80.6206 178.332 80.9136C178.332 80.1636 178.332 79.4194 178.332 78.6812C178.343 77.9429 178.349 77.1987 178.349 76.4487C178.349 76.144 178.256 75.8569 178.068 75.5874C177.881 75.3179 177.652 75.1069 177.382 74.9546C177.195 74.8491 176.966 74.8022 176.697 74.814C176.439 74.8374 176.304 75.0015 176.293 75.3062C176.293 77.4038 176.287 79.5073 176.275 81.6167C176.275 83.7144 176.269 85.812 176.257 87.9097C176.257 88.2144 176.345 88.5015 176.521 88.771C176.709 89.0405 176.937 89.2515 177.207 89.4038C177.359 89.4976 177.552 89.5444 177.787 89.5444C177.822 89.5444 177.857 89.5386 177.892 89.5269C178.162 89.5151 178.297 89.3569 178.297 89.0522C178.297 88.0913 178.302 87.1304 178.314 86.1694C178.314 85.2202 178.32 84.2651 178.332 83.3042C178.461 83.2222 178.66 83.0874 178.929 82.8999ZM191.581 84.3237C191.991 83.2925 192.419 82.2729 192.864 81.2651C193.309 80.2456 193.76 79.2319 194.217 78.2241C194.557 79.1968 194.885 80.1694 195.202 81.1421C195.518 82.1147 195.823 83.0933 196.116 84.0776C195.366 84.0073 194.61 83.9897 193.848 84.0249C193.087 84.0718 192.331 84.1714 191.581 84.3237ZM199.473 89.439C198.923 87.353 198.331 85.2847 197.698 83.2339C197.065 81.1714 196.385 79.1323 195.659 77.1167C195.518 76.7417 195.378 76.3491 195.237 75.939C195.096 75.5288 194.874 75.1772 194.569 74.8843C194.405 74.7202 194.165 74.5679 193.848 74.4272C193.766 74.3804 193.684 74.3569 193.602 74.3569C193.415 74.3569 193.262 74.4741 193.145 74.7085C192.137 76.9351 191.147 79.1792 190.174 81.4409C189.19 83.6909 188.376 86.0054 187.731 88.3843C187.708 88.4897 187.696 88.5952 187.696 88.7007C187.696 88.8765 187.743 89.0522 187.837 89.228C187.977 89.5093 188.159 89.7378 188.381 89.9136C188.51 90.019 188.739 90.1304 189.067 90.2476C189.161 90.271 189.243 90.2827 189.313 90.2827C189.501 90.2827 189.624 90.1772 189.682 89.9663C189.811 89.4858 189.952 88.9995 190.104 88.5073C190.256 88.0269 190.415 87.5464 190.579 87.0659C190.614 87.0776 190.649 87.0835 190.684 87.0835C190.719 87.0835 190.76 87.0718 190.807 87.0483C191.768 86.6968 192.747 86.4507 193.743 86.3101C194.739 86.1694 195.741 86.1401 196.749 86.2222C196.866 86.644 196.983 87.0718 197.1 87.5054C197.217 87.939 197.335 88.3667 197.452 88.7886C197.522 89.0815 197.663 89.3569 197.874 89.6147C198.085 89.8726 198.342 90.0542 198.647 90.1597C198.893 90.23 199.11 90.1948 199.298 90.0542C199.438 89.9487 199.508 89.8081 199.508 89.6323C199.508 89.5737 199.497 89.5093 199.473 89.439ZM204.179 83.9897C204.144 83.9897 204.127 83.9897 204.127 83.9897C204.127 83.9897 204.144 83.9897 204.179 83.9897ZM211.211 87.6987C210.765 86.9956 210.273 86.3218 209.734 85.6772C209.195 85.0444 208.586 84.4761 207.906 83.9722C207.461 83.6558 206.998 83.3687 206.517 83.1108C206.025 82.8647 205.521 82.6538 205.005 82.478C205.427 82.2085 205.832 81.9097 206.218 81.5815C206.605 81.2534 206.98 80.9136 207.343 80.562C207.988 79.9058 208.591 79.2202 209.154 78.5054C209.716 77.7788 210.261 77.0464 210.789 76.3081C210.871 76.2026 210.918 76.103 210.929 76.0093C210.953 75.9155 210.947 75.8335 210.912 75.7632C210.83 75.5757 210.648 75.4351 210.367 75.3413C210.132 75.2593 209.892 75.2183 209.646 75.2183C209.588 75.2183 209.535 75.2183 209.488 75.2183C209.289 75.2417 209.101 75.2827 208.925 75.3413C208.761 75.4116 208.632 75.5054 208.539 75.6226C208.023 76.3374 207.502 77.0405 206.974 77.7319C206.435 78.4233 205.867 79.0854 205.269 79.7183C205.011 79.9761 204.759 80.2163 204.513 80.439C204.267 80.6616 204.004 80.8726 203.722 81.0718C203.652 81.1304 203.588 81.1831 203.529 81.23C203.47 81.2769 203.406 81.3237 203.336 81.3706C203.347 80.6558 203.377 79.9409 203.423 79.2261C203.47 78.5229 203.535 77.814 203.617 77.0991C203.64 76.8062 203.546 76.519 203.336 76.2378C203.125 75.9565 202.896 75.7456 202.65 75.605C202.439 75.4878 202.211 75.4409 201.964 75.4644C201.718 75.4878 201.584 75.6519 201.56 75.9565C201.373 77.7964 201.279 79.6362 201.279 81.4761C201.279 81.6401 201.279 81.8101 201.279 81.9858C201.302 84.0015 201.42 86.0171 201.63 88.0327C201.666 88.314 201.806 88.5894 202.052 88.8589C202.31 89.1284 202.574 89.3042 202.843 89.3862C202.949 89.4097 203.043 89.4214 203.125 89.4214C203.265 89.4214 203.382 89.3745 203.476 89.2808C203.629 89.1401 203.687 88.9351 203.652 88.6655C203.558 87.8335 203.482 87.0073 203.423 86.187C203.377 85.3667 203.347 84.5405 203.336 83.7085C204.531 84.0483 205.568 84.6284 206.447 85.4487C207.338 86.269 208.105 87.189 208.75 88.2085C208.914 88.4663 209.154 88.6245 209.47 88.6831C209.798 88.7417 210.097 88.7476 210.367 88.7007C210.543 88.6538 210.765 88.5366 211.035 88.3491C211.211 88.2437 211.298 88.1147 211.298 87.9624C211.298 87.8804 211.269 87.7925 211.211 87.6987ZM230.361 77.2573C230.361 77.0698 230.361 76.8765 230.361 76.6772C230.373 76.478 230.361 76.2905 230.326 76.1147C230.267 75.8101 230.132 75.5171 229.921 75.2358C229.722 74.9663 229.482 74.7554 229.201 74.603C228.943 74.4624 228.667 74.3921 228.375 74.3921C228.269 74.3921 228.169 74.3979 228.076 74.4097C227.677 74.48 227.285 74.5386 226.898 74.5854C226.558 74.6206 226.218 74.6499 225.878 74.6733C225.539 74.7085 225.193 74.7378 224.841 74.7612C224.162 74.8198 223.476 74.8843 222.785 74.9546C222.105 75.0249 221.425 75.1245 220.746 75.2534C220.71 75.2183 220.669 75.189 220.623 75.1655C220.587 75.1421 220.552 75.1128 220.517 75.0776C220.33 74.9839 220.095 74.9429 219.814 74.9546C219.533 74.9663 219.398 75.1304 219.41 75.4468C219.492 77.5562 219.515 79.6597 219.48 81.7573C219.433 83.8667 219.328 85.9761 219.164 88.0854C219.164 88.1089 219.164 88.1323 219.164 88.1558C219.164 88.4253 219.257 88.689 219.445 88.9468C219.644 89.228 219.867 89.439 220.113 89.5796C220.289 89.6733 220.476 89.7202 220.675 89.7202C220.71 89.7202 220.751 89.7202 220.798 89.7202C221.044 89.6968 221.185 89.5327 221.22 89.228C221.373 87.2827 221.472 85.3257 221.519 83.3569C221.554 81.3999 221.542 79.4487 221.484 77.5034C222.117 77.3628 222.75 77.2515 223.382 77.1694C224.015 77.0991 224.648 77.0347 225.281 76.9761C225.644 76.9409 226.007 76.9058 226.371 76.8706C226.722 76.8472 227.08 76.8179 227.443 76.7827C227.584 76.771 227.73 76.7593 227.882 76.7476C228.023 76.7241 228.169 76.7065 228.322 76.6948C228.322 76.7065 228.322 76.7241 228.322 76.7476C228.322 76.7593 228.322 76.7769 228.322 76.8003C228.322 77.0698 228.322 77.3394 228.322 77.6089C228.322 77.8784 228.322 78.1421 228.322 78.3999C228.322 78.9155 228.322 79.437 228.322 79.9644C228.322 80.48 228.316 81.0015 228.304 81.5288C228.281 82.6069 228.24 83.6851 228.181 84.7632C228.111 85.8296 228.011 86.9019 227.882 87.98C227.847 88.2729 227.935 88.5659 228.146 88.8589C228.357 89.1401 228.585 89.3511 228.832 89.4917C229.042 89.6089 229.271 89.6499 229.517 89.6147C229.751 89.5913 229.886 89.4272 229.921 89.1226C230.109 87.5522 230.232 85.9761 230.291 84.394C230.349 82.8003 230.378 81.2065 230.378 79.6128C230.378 79.2261 230.373 78.8335 230.361 78.4351C230.361 78.0483 230.361 77.6558 230.361 77.2573ZM243.293 78.189C243.165 78.6929 242.913 79.144 242.538 79.5425C242.163 79.9409 241.77 80.2983 241.36 80.6147C240.938 80.9429 240.493 81.2417 240.024 81.5112C239.543 81.769 239.057 81.9976 238.565 82.1968C238.049 82.4077 237.528 82.5952 237 82.7593C236.485 82.9116 235.958 83.0522 235.418 83.1812C235.372 82.1851 235.372 81.189 235.418 80.1929C235.465 79.2085 235.67 78.2358 236.034 77.2749C236.444 77.1694 236.86 77.0874 237.282 77.0288C237.704 76.9702 238.125 76.9292 238.547 76.9058C239.239 76.8706 239.93 76.853 240.622 76.853C241.313 76.8647 241.999 76.9585 242.678 77.1343C242.936 77.2046 243.124 77.3218 243.241 77.4858C243.346 77.6382 243.37 77.855 243.311 78.1362C243.311 78.1362 243.311 78.1421 243.311 78.1538C243.311 78.1655 243.305 78.1772 243.293 78.189ZM244.172 76.1675C243.387 75.4175 242.497 74.978 241.5 74.8491C240.668 74.7554 239.836 74.7085 239.004 74.7085C238.829 74.7085 238.653 74.7085 238.477 74.7085C237.434 74.7202 236.409 74.8257 235.401 75.0249C234.381 75.2124 233.426 75.5757 232.536 76.1147C232.442 76.1733 232.389 76.2729 232.377 76.4136C232.366 76.4956 232.36 76.5659 232.36 76.6245C232.36 76.6714 232.36 76.7183 232.36 76.7651C232.395 76.9058 232.454 77.0522 232.536 77.2046C232.606 77.3569 232.694 77.4858 232.799 77.5913C232.893 77.6851 232.999 77.7788 233.116 77.8726C233.233 77.978 233.362 78.0483 233.502 78.0835C233.385 78.9976 233.344 79.9175 233.379 80.8433C233.415 81.7573 233.456 82.6772 233.502 83.603C233.233 83.6733 233.127 83.8667 233.186 84.1831C233.233 84.4995 233.309 84.7397 233.415 84.9038C233.438 84.939 233.461 84.9741 233.485 85.0093C233.52 85.0327 233.549 85.062 233.573 85.0972C233.584 85.6362 233.579 86.1694 233.555 86.6968C233.532 87.2358 233.479 87.769 233.397 88.2964C233.35 88.5894 233.438 88.8823 233.661 89.1753C233.883 89.4683 234.112 89.6792 234.346 89.8081C234.522 89.9019 234.704 89.9487 234.891 89.9487C234.938 89.9487 234.985 89.9487 235.032 89.9487C235.266 89.9136 235.401 89.7495 235.436 89.4565C235.541 88.812 235.594 88.1675 235.594 87.5229C235.606 86.8784 235.6 86.228 235.577 85.5718C236.303 85.4194 237.03 85.2437 237.756 85.0444C238.471 84.8452 239.18 84.605 239.883 84.3237C240.68 83.9956 241.459 83.603 242.221 83.146C242.995 82.6772 243.663 82.1147 244.225 81.4585C244.518 81.1187 244.776 80.7437 244.999 80.3335C245.221 79.9351 245.35 79.5015 245.385 79.0327C245.385 78.939 245.385 78.8511 245.385 78.769C245.385 78.3237 245.286 77.8901 245.086 77.4683C244.852 76.9761 244.547 76.5425 244.172 76.1675ZM256.824 80.5093C256.706 80.978 256.554 81.4351 256.367 81.8804C256.167 82.3374 255.962 82.7593 255.751 83.146C255.412 83.7437 255.013 84.3003 254.556 84.8159C254.111 85.3433 253.613 85.8062 253.062 86.2046C252.628 86.5327 252.154 86.7905 251.638 86.978C251.111 87.1772 250.572 87.2769 250.021 87.2769C249.763 87.2769 249.505 87.2358 249.247 87.1538C248.99 87.0718 248.767 86.9429 248.58 86.7671C248.24 86.439 248.058 85.9819 248.035 85.396C248.011 84.8218 248.029 84.3179 248.087 83.8843C248.158 83.3452 248.287 82.8237 248.474 82.3198C248.662 81.8042 248.89 81.312 249.16 80.8433C249.476 80.3276 249.857 79.8413 250.302 79.3843C250.747 78.939 251.21 78.5347 251.691 78.1714C252.148 77.8315 252.646 77.5327 253.185 77.2749C253.736 77.0054 254.298 76.8589 254.872 76.8354C255.517 76.812 256.027 77.0054 256.402 77.4155C256.777 77.8257 256.982 78.3472 257.017 78.98C257.017 79.2261 256.999 79.478 256.964 79.7358C256.941 79.9819 256.894 80.2397 256.824 80.5093ZM258.177 77.0815C257.72 76.4136 257.134 75.8511 256.419 75.394C255.705 74.9487 254.931 74.7202 254.099 74.7085C252.74 74.7202 251.48 75.1479 250.32 75.9917C249.16 76.8237 248.21 77.7788 247.472 78.8569C247.015 79.5366 246.652 80.3042 246.382 81.1597C246.113 82.0151 245.978 82.8765 245.978 83.7437C245.978 84.2124 246.019 84.6753 246.101 85.1323C246.183 85.5776 246.324 86.0112 246.523 86.4331C246.828 87.1128 247.267 87.7104 247.841 88.2261C248.415 88.7534 249.078 89.105 249.828 89.2808C250.238 89.3862 250.648 89.439 251.058 89.439C251.374 89.439 251.685 89.4097 251.99 89.3511C252.716 89.2222 253.408 88.9702 254.064 88.5952C255.259 87.9038 256.261 86.9546 257.07 85.7476C257.878 84.5288 258.447 83.2632 258.775 81.9507C258.927 81.3062 259.003 80.6499 259.003 79.9819C259.003 79.8062 258.997 79.6304 258.986 79.4546C258.939 78.5991 258.669 77.8081 258.177 77.0815ZM271.813 88.5249C271.016 87.271 270.12 86.0815 269.123 84.9565C268.139 83.8433 267.161 82.7241 266.188 81.5991C266.903 80.4624 267.664 79.3491 268.473 78.2593C269.282 77.1812 270.143 76.1558 271.057 75.1831C271.268 74.9487 271.291 74.7319 271.127 74.5327C270.963 74.3335 270.77 74.1987 270.547 74.1284C270.383 74.0815 270.202 74.0581 270.002 74.0581C269.885 74.0581 269.762 74.064 269.633 74.0757C269.293 74.1226 269.018 74.2632 268.807 74.4976C268.045 75.3179 267.319 76.1675 266.627 77.0464C265.948 77.9253 265.297 78.8335 264.676 79.771C264.5 79.5483 264.33 79.3257 264.166 79.103C264.002 78.8804 263.844 78.6577 263.692 78.4351C263.375 77.9663 263.071 77.4858 262.778 76.9937C262.485 76.4897 262.233 75.98 262.022 75.4644C261.928 75.2417 261.735 75.0894 261.442 75.0073C261.161 74.937 260.868 74.9194 260.563 74.9546C260.364 74.9897 260.176 75.0425 260 75.1128C259.836 75.1948 259.707 75.2944 259.614 75.4116C259.567 75.4937 259.538 75.5815 259.526 75.6753C259.526 75.687 259.526 75.7046 259.526 75.728C259.526 75.7983 259.543 75.8804 259.579 75.9741C259.977 76.9468 260.475 77.8608 261.073 78.7163C261.682 79.5835 262.315 80.4214 262.971 81.23C263.041 81.312 263.118 81.394 263.2 81.4761C263.27 81.5698 263.34 81.6577 263.411 81.7397C262.743 82.8179 262.104 83.9194 261.495 85.0444C260.885 86.1577 260.299 87.2769 259.737 88.4019C259.596 88.6714 259.672 88.8882 259.965 89.0522C260.246 89.2163 260.481 89.3042 260.668 89.3159C260.938 89.3511 261.231 89.3276 261.547 89.2456C261.864 89.1636 262.086 88.9878 262.215 88.7183C262.661 87.8511 263.112 86.9897 263.569 86.1343C264.026 85.2671 264.5 84.4175 264.993 83.5854C265.379 84.0308 265.766 84.4761 266.153 84.9214C266.551 85.3667 266.938 85.8179 267.313 86.2749C267.688 86.7202 268.045 87.1714 268.385 87.6284C268.725 88.0972 269.047 88.5718 269.352 89.0522C269.516 89.3101 269.756 89.4624 270.073 89.5093C270.237 89.5444 270.389 89.562 270.53 89.562C270.682 89.562 270.823 89.5503 270.952 89.5269C271.127 89.4917 271.356 89.3804 271.637 89.1929C271.813 89.0757 271.901 88.9468 271.901 88.8062C271.901 88.7241 271.871 88.6304 271.813 88.5249ZM282.689 80.5093C282.572 80.978 282.419 81.4351 282.232 81.8804C282.033 82.3374 281.827 82.7593 281.617 83.146C281.277 83.7437 280.878 84.3003 280.421 84.8159C279.976 85.3433 279.478 85.8062 278.927 86.2046C278.494 86.5327 278.019 86.7905 277.503 86.978C276.976 87.1772 276.437 87.2769 275.886 87.2769C275.628 87.2769 275.37 87.2358 275.113 87.1538C274.855 87.0718 274.632 86.9429 274.445 86.7671C274.105 86.439 273.923 85.9819 273.9 85.396C273.876 84.8218 273.894 84.3179 273.952 83.8843C274.023 83.3452 274.152 82.8237 274.339 82.3198C274.527 81.8042 274.755 81.312 275.025 80.8433C275.341 80.3276 275.722 79.8413 276.167 79.3843C276.613 78.939 277.076 78.5347 277.556 78.1714C278.013 77.8315 278.511 77.5327 279.05 77.2749C279.601 77.0054 280.163 76.8589 280.738 76.8354C281.382 76.812 281.892 77.0054 282.267 77.4155C282.642 77.8257 282.847 78.3472 282.882 78.98C282.882 79.2261 282.865 79.478 282.829 79.7358C282.806 79.9819 282.759 80.2397 282.689 80.5093ZM284.042 77.0815C283.585 76.4136 282.999 75.8511 282.285 75.394C281.57 74.9487 280.796 74.7202 279.964 74.7085C278.605 74.7202 277.345 75.1479 276.185 75.9917C275.025 76.8237 274.076 77.7788 273.337 78.8569C272.88 79.5366 272.517 80.3042 272.247 81.1597C271.978 82.0151 271.843 82.8765 271.843 83.7437C271.843 84.2124 271.884 84.6753 271.966 85.1323C272.048 85.5776 272.189 86.0112 272.388 86.4331C272.693 87.1128 273.132 87.7104 273.706 88.2261C274.281 88.7534 274.943 89.105 275.693 89.2808C276.103 89.3862 276.513 89.439 276.923 89.439C277.24 89.439 277.55 89.4097 277.855 89.3511C278.581 89.2222 279.273 88.9702 279.929 88.5952C281.124 87.9038 282.126 86.9546 282.935 85.7476C283.744 84.5288 284.312 83.2632 284.64 81.9507C284.792 81.3062 284.869 80.6499 284.869 79.9819C284.869 79.8062 284.863 79.6304 284.851 79.4546C284.804 78.5991 284.535 77.8081 284.042 77.0815ZM288.414 86.0464C288.907 84.7104 289.428 83.3921 289.979 82.0913C290.53 80.7788 291.116 79.4839 291.737 78.2065C292.006 79.3784 292.258 80.5562 292.493 81.7397C292.727 82.9233 292.903 84.1187 293.02 85.3257C292.246 85.4194 291.479 85.5249 290.717 85.6421C289.944 85.771 289.176 85.9058 288.414 86.0464ZM297.467 85.6948C297.35 85.5425 297.186 85.3784 296.975 85.2026C296.764 85.0269 296.559 84.9507 296.36 84.9741C296.125 84.9858 295.891 85.0034 295.657 85.0269C295.422 85.0503 295.188 85.0737 294.953 85.0972C294.743 83.4917 294.455 81.8979 294.092 80.3159C293.717 78.7456 293.354 77.1694 293.002 75.5874C292.92 75.2241 292.739 74.9077 292.457 74.6382C292.188 74.3687 291.86 74.2104 291.473 74.1636C291.438 74.1636 291.409 74.1636 291.385 74.1636C291.291 74.1636 291.203 74.1812 291.121 74.2163C291.016 74.2749 290.928 74.3628 290.858 74.48C289.85 76.4487 288.912 78.4526 288.045 80.4917C287.178 82.5308 286.393 84.5991 285.69 86.6968C285.491 86.7554 285.297 86.8198 285.11 86.8901C284.922 86.9722 284.758 87.0835 284.618 87.2241C284.395 87.4468 284.254 87.7104 284.196 88.0151C284.172 88.1909 284.16 88.3608 284.16 88.5249C284.16 88.6538 284.172 88.7886 284.196 88.9292C284.266 89.4448 284.418 90.0249 284.653 90.6694C284.875 91.314 285.274 91.7241 285.848 91.8999C286.094 91.9819 286.305 91.9526 286.481 91.812C286.668 91.6714 286.727 91.4604 286.657 91.1792C286.586 90.9214 286.51 90.6753 286.428 90.4409C286.334 90.1948 286.27 89.978 286.235 89.7905C286.2 89.6382 286.194 89.4917 286.217 89.3511C286.241 89.2104 286.352 89.0874 286.551 88.9819C286.715 88.8999 286.903 88.8354 287.114 88.7886C287.325 88.73 287.53 88.6714 287.729 88.6128C288.034 88.5425 288.326 88.4722 288.608 88.4019C288.901 88.3433 289.2 88.2847 289.504 88.2261C290.442 88.0503 291.391 87.8921 292.352 87.7515C293.301 87.5991 294.256 87.4644 295.217 87.3472C295.088 87.8159 294.953 88.2847 294.813 88.7534C294.684 89.2104 294.549 89.6733 294.409 90.1421C294.326 90.4351 294.356 90.7222 294.496 91.0034C294.649 91.2729 294.83 91.5015 295.041 91.689C295.182 91.7944 295.41 91.8999 295.727 92.0054C295.809 92.0288 295.885 92.0405 295.955 92.0405C296.155 92.0405 296.284 91.9351 296.342 91.7241C296.588 90.9155 296.828 90.1069 297.063 89.2983C297.285 88.478 297.52 87.6636 297.766 86.855C297.789 86.7495 297.801 86.6499 297.801 86.5562C297.801 86.4507 297.789 86.3452 297.766 86.2397C297.696 86.0405 297.596 85.8589 297.467 85.6948ZM310.277 74.8315C310.159 74.7378 309.966 74.6323 309.697 74.5151C309.439 74.4097 309.24 74.4448 309.099 74.6206C307.74 76.2964 306.439 78.019 305.197 79.7886C303.954 81.5581 302.736 83.3394 301.54 85.1323C301.482 83.6323 301.47 82.1265 301.505 80.6147C301.552 79.103 301.699 77.5972 301.945 76.0972C302.003 75.7456 301.827 75.3706 301.417 74.9722C301.054 74.6206 300.72 74.4448 300.415 74.4448C300.392 74.4448 300.363 74.4448 300.327 74.4448C300.222 74.4683 300.128 74.521 300.046 74.603C299.976 74.6733 299.923 74.7905 299.888 74.9546C299.583 76.8647 299.431 78.7866 299.431 80.7202C299.431 80.978 299.431 81.23 299.431 81.4761C299.478 83.6675 299.566 85.853 299.695 88.0327C299.718 88.314 299.8 88.5835 299.941 88.8413C300.093 89.0874 300.286 89.2925 300.521 89.4565C300.708 89.5737 300.913 89.6499 301.136 89.6851C301.171 89.6851 301.2 89.6851 301.224 89.6851C301.411 89.6851 301.57 89.5913 301.699 89.4038C302.777 87.7749 303.866 86.146 304.968 84.5171C306.07 82.8882 307.2 81.2886 308.361 79.7183C308.325 80.0229 308.302 80.3394 308.29 80.6675C308.267 80.9956 308.249 81.3179 308.238 81.6343C308.191 82.7476 308.185 83.855 308.22 84.9565C308.255 86.0698 308.314 87.1772 308.396 88.2788C308.419 88.5718 308.56 88.8472 308.818 89.105C309.064 89.3745 309.322 89.5503 309.591 89.6323C309.884 89.7261 310.095 89.6968 310.224 89.5444C310.365 89.3921 310.423 89.1812 310.4 88.9116C310.247 86.7671 310.224 84.6343 310.329 82.5132C310.435 80.3921 310.646 78.271 310.962 76.1499C310.974 76.103 310.98 76.0562 310.98 76.0093C310.98 75.8218 310.915 75.6226 310.786 75.4116C310.622 75.1655 310.452 74.9722 310.277 74.8315ZM325.266 76.0093C325.172 75.7397 324.996 75.4878 324.739 75.2534C324.492 75.0073 324.217 74.8784 323.912 74.8667C323.537 74.855 323.162 74.8491 322.787 74.8491C321.393 74.8491 319.998 74.937 318.604 75.1128C316.846 75.3472 315.117 75.7222 313.418 76.2378C313.313 76.2729 313.231 76.3257 313.172 76.396C313.114 76.4546 313.072 76.5308 313.049 76.6245C313.037 76.6714 313.031 76.7183 313.031 76.7651C313.031 76.9409 313.09 77.1343 313.207 77.3452C313.36 77.6265 313.553 77.8608 313.787 78.0483C313.94 78.1772 314.104 78.2769 314.28 78.3472C314.444 78.4058 314.602 78.4116 314.754 78.3647C315.211 78.2241 315.668 78.0952 316.125 77.978C316.594 77.8608 317.063 77.7554 317.531 77.6616C317.52 79.4194 317.526 81.1714 317.549 82.9175C317.584 84.6636 317.631 86.4097 317.69 88.1558C317.701 88.4722 317.795 88.7651 317.971 89.0347C318.147 89.3042 318.369 89.5093 318.639 89.6499C318.815 89.7437 319.031 89.7905 319.289 89.7905C319.301 89.7905 319.313 89.7905 319.324 89.7905C319.606 89.7788 319.746 89.6147 319.746 89.2983C319.676 87.4116 319.623 85.519 319.588 83.6206C319.565 81.7339 319.553 79.8413 319.553 77.9429C319.553 77.8608 319.553 77.7847 319.553 77.7144C319.541 77.6323 319.518 77.5562 319.483 77.4858C319.471 77.439 319.477 77.3979 319.5 77.3628C319.512 77.3276 319.535 77.3042 319.571 77.2925C320.438 77.1753 321.305 77.0991 322.172 77.064C323.039 77.0171 323.912 77.0112 324.791 77.0464C325.096 77.0581 325.272 76.9409 325.319 76.6948C325.342 76.6011 325.354 76.5132 325.354 76.4312C325.354 76.2788 325.324 76.1382 325.266 76.0093ZM341.621 80.5093C341.504 80.978 341.352 81.4351 341.164 81.8804C340.965 82.3374 340.76 82.7593 340.549 83.146C340.209 83.7437 339.811 84.3003 339.354 84.8159C338.908 85.3433 338.41 85.8062 337.86 86.2046C337.426 86.5327 336.951 86.7905 336.436 86.978C335.908 87.1772 335.369 87.2769 334.819 87.2769C334.561 87.2769 334.303 87.2358 334.045 87.1538C333.787 87.0718 333.565 86.9429 333.377 86.7671C333.037 86.439 332.856 85.9819 332.832 85.396C332.809 84.8218 332.826 84.3179 332.885 83.8843C332.955 83.3452 333.084 82.8237 333.272 82.3198C333.459 81.8042 333.688 81.312 333.957 80.8433C334.274 80.3276 334.654 79.8413 335.1 79.3843C335.545 78.939 336.008 78.5347 336.488 78.1714C336.945 77.8315 337.444 77.5327 337.983 77.2749C338.533 77.0054 339.096 76.8589 339.67 76.8354C340.315 76.812 340.824 77.0054 341.199 77.4155C341.574 77.8257 341.779 78.3472 341.815 78.98C341.815 79.2261 341.797 79.478 341.762 79.7358C341.738 79.9819 341.692 80.2397 341.621 80.5093ZM342.975 77.0815C342.518 76.4136 341.932 75.8511 341.217 75.394C340.502 74.9487 339.729 74.7202 338.897 74.7085C337.537 74.7202 336.277 75.1479 335.117 75.9917C333.957 76.8237 333.008 77.7788 332.27 78.8569C331.813 79.5366 331.449 80.3042 331.18 81.1597C330.91 82.0151 330.776 82.8765 330.776 83.7437C330.776 84.2124 330.817 84.6753 330.899 85.1323C330.981 85.5776 331.121 86.0112 331.32 86.4331C331.625 87.1128 332.065 87.7104 332.639 88.2261C333.213 88.7534 333.875 89.105 334.625 89.2808C335.035 89.3862 335.445 89.439 335.856 89.439C336.172 89.439 336.483 89.4097 336.787 89.3511C337.514 89.2222 338.205 88.9702 338.861 88.5952C340.057 87.9038 341.059 86.9546 341.867 85.7476C342.676 84.5288 343.244 83.2632 343.572 81.9507C343.725 81.3062 343.801 80.6499 343.801 79.9819C343.801 79.8062 343.795 79.6304 343.783 79.4546C343.736 78.5991 343.467 77.8081 342.975 77.0815ZM354.167 82.0034C354.296 82.0737 354.407 82.1616 354.501 82.2671C354.595 82.3843 354.636 82.5308 354.624 82.7065C354.612 83.0581 354.495 83.3921 354.273 83.7085C354.05 84.0366 353.821 84.3179 353.587 84.5522C352.884 85.2554 352.081 85.7886 351.179 86.1519C350.265 86.5151 349.351 86.855 348.437 87.1714C348.39 87.1831 348.237 87.2241 347.98 87.2944C347.734 87.3647 347.61 87.4116 347.61 87.4351C347.599 86.7671 347.605 86.0991 347.628 85.4312C347.64 84.7515 347.669 84.0835 347.716 83.4272C347.728 83.3218 347.739 83.1929 347.751 83.0405C347.763 82.8882 347.769 82.812 347.769 82.812C347.769 82.812 347.88 82.771 348.103 82.689C348.325 82.6187 348.454 82.5718 348.489 82.5483C349.263 82.314 350.06 82.103 350.88 81.9155C351.712 81.728 352.532 81.6753 353.341 81.7573C353.47 81.7808 353.61 81.8101 353.763 81.8452C353.915 81.8804 354.05 81.9331 354.167 82.0034ZM356.435 82.478C356.071 81.5757 355.474 80.8667 354.642 80.3511C353.821 79.8472 352.937 79.5835 351.987 79.5601C351.331 79.5483 350.675 79.5952 350.019 79.7007C349.362 79.8179 348.712 79.9702 348.068 80.1577C348.126 79.7358 348.191 79.3198 348.261 78.9097C348.331 78.4878 348.407 78.0659 348.489 77.644C349.708 77.5151 350.927 77.3511 352.146 77.1519C353.353 76.9644 354.56 76.7534 355.767 76.519C356.06 76.4722 356.177 76.2847 356.118 75.9565C356.06 75.6284 355.984 75.3882 355.89 75.2358C355.737 75.0015 355.532 74.7905 355.275 74.603C355.075 74.4507 354.864 74.3745 354.642 74.3745C354.571 74.3862 354.507 74.3979 354.448 74.4097C353.218 74.644 351.993 74.855 350.775 75.0425C349.544 75.2417 348.308 75.4058 347.066 75.5347C346.843 75.5581 346.691 75.6284 346.609 75.7456C346.526 75.8745 346.491 76.0269 346.503 76.2026C346.304 77.1987 346.134 78.2065 345.993 79.2261C345.841 80.2339 345.73 81.2476 345.659 82.2671C345.601 83.2397 345.566 84.2124 345.554 85.1851C345.554 86.1577 345.571 87.1304 345.607 88.103C345.501 88.1382 345.419 88.1909 345.36 88.2612C345.314 88.3315 345.278 88.4077 345.255 88.4897C345.243 88.5366 345.237 88.5835 345.237 88.6304C345.237 88.8179 345.296 89.0171 345.413 89.228C345.566 89.5093 345.759 89.7437 345.993 89.9312C346.146 90.0601 346.31 90.1538 346.485 90.2124C346.568 90.2476 346.655 90.2651 346.749 90.2651C346.819 90.2651 346.89 90.2534 346.96 90.23C347.816 89.937 348.671 89.6499 349.526 89.3687C350.394 89.0874 351.249 88.7827 352.093 88.4546C352.714 88.2202 353.312 87.9272 353.886 87.5757C354.472 87.2124 354.993 86.7847 355.45 86.2925C355.943 85.7769 356.3 85.1909 356.523 84.5347C356.616 84.2417 356.663 83.9487 356.663 83.6558C356.663 83.269 356.587 82.8765 356.435 82.478ZM366.572 75.5698C366.244 76.5659 365.893 77.5503 365.518 78.5229C365.131 79.4839 364.727 80.4448 364.305 81.4058C364.258 81.3354 364.07 81.1304 363.742 80.7905C363.414 80.4507 363.227 80.2456 363.18 80.1753C363.016 79.9878 362.852 79.7944 362.688 79.5952C362.535 79.396 362.383 79.1968 362.231 78.9976C361.938 78.5757 361.68 78.1362 361.457 77.6792C361.234 77.2339 361.029 76.7651 360.842 76.2729C360.807 76.144 360.76 76.0151 360.701 75.8862C360.654 75.769 360.59 75.6577 360.508 75.5522C360.32 75.3062 359.963 75.1714 359.436 75.1479C358.92 75.1128 358.533 75.2183 358.275 75.4644C358.193 75.5464 358.141 75.646 358.117 75.7632C358.106 75.8101 358.1 75.8569 358.1 75.9038C358.1 75.9858 358.111 76.0679 358.135 76.1499C358.393 76.9702 358.727 77.7437 359.137 78.4702C359.547 79.2085 360.027 79.9116 360.578 80.5796C361.012 81.0952 361.463 81.5874 361.932 82.0562C362.389 82.5366 362.84 83.0347 363.285 83.5503C362.84 84.4058 362.377 85.2554 361.897 86.0991C361.416 86.9312 360.918 87.7515 360.402 88.5601C360.309 88.7007 360.262 88.8296 360.262 88.9468C360.274 89.064 360.309 89.1694 360.367 89.2632C360.578 89.5327 360.959 89.6733 361.51 89.6851C361.545 89.6851 361.574 89.6851 361.598 89.6851C362.113 89.6851 362.465 89.5386 362.652 89.2456C363.988 87.1597 365.195 84.9976 366.274 82.7593C367.352 80.5327 368.277 78.2417 369.051 75.8862C369.074 75.8042 369.086 75.7339 369.086 75.6753C369.086 75.6401 369.086 75.605 369.086 75.5698C369.063 75.4878 369.022 75.4116 368.963 75.3413C368.869 75.2241 368.734 75.1362 368.559 75.0776C368.383 75.0073 368.195 74.9663 367.996 74.9546C367.949 74.9546 367.902 74.9546 367.856 74.9546C367.598 74.9546 367.352 74.9956 367.117 75.0776C366.824 75.1831 366.643 75.3472 366.572 75.5698ZM380.067 74.5854C379.903 74.4917 379.716 74.4448 379.505 74.4448C379.47 74.4448 379.435 74.4448 379.399 74.4448C379.142 74.4683 379.001 74.6323 378.978 74.937C378.931 75.7808 378.896 76.6304 378.872 77.4858C378.849 78.3296 378.831 79.1733 378.819 80.0171C378.21 80.0405 377.606 80.0874 377.009 80.1577C376.411 80.228 375.819 80.3276 375.233 80.4565C374.917 80.5151 374.601 80.5854 374.284 80.6675C373.968 80.7495 373.657 80.8374 373.353 80.9312C373.259 80.9663 373.159 80.9956 373.054 81.019C372.96 81.0542 372.855 81.0952 372.737 81.1421C372.737 81.1421 372.737 81.1362 372.737 81.1245C372.737 81.1128 372.737 81.1069 372.737 81.1069C372.726 80.8608 372.72 80.6089 372.72 80.3511C372.72 80.0933 372.726 79.8296 372.737 79.5601C372.772 79.0327 372.837 78.5054 372.931 77.978C373.013 77.4507 373.136 76.9292 373.3 76.4136C373.394 76.1323 373.364 75.8511 373.212 75.5698C373.06 75.2886 372.872 75.0542 372.649 74.8667C372.521 74.7612 372.298 74.6558 371.981 74.5503C371.653 74.4448 371.448 74.5386 371.366 74.8315C371.155 75.4995 370.985 76.1792 370.856 76.8706C370.728 77.5737 370.657 78.2769 370.646 78.98C370.634 79.1792 370.628 79.3843 370.628 79.5952C370.628 79.8413 370.634 80.0933 370.646 80.3511C370.669 80.8198 370.739 81.2769 370.856 81.7222C370.962 82.144 371.149 82.5659 371.419 82.9878C371.677 83.4097 372.052 83.6265 372.544 83.6382C372.79 83.6499 373.024 83.6147 373.247 83.5327C373.47 83.4624 373.692 83.3862 373.915 83.3042C374.173 83.2222 374.437 83.1401 374.706 83.0581C374.964 82.9761 375.228 82.9058 375.497 82.8472C376.036 82.7065 376.575 82.5894 377.114 82.4956C377.665 82.4019 378.21 82.3257 378.749 82.2671C378.749 83.2515 378.714 84.23 378.644 85.2026C378.562 86.1753 378.456 87.1421 378.327 88.103C378.304 88.2319 378.286 88.3667 378.274 88.5073C378.274 88.6362 378.286 88.7651 378.31 88.894C378.345 89.1401 378.45 89.3687 378.626 89.5796C378.802 89.7788 379.007 89.937 379.241 90.0542C379.382 90.1362 379.54 90.1831 379.716 90.1948C379.751 90.2065 379.78 90.2124 379.804 90.2124C379.944 90.2124 380.062 90.1597 380.155 90.0542C380.226 89.9839 380.272 89.9019 380.296 89.8081C380.319 89.7144 380.343 89.6206 380.366 89.5269C380.636 87.3354 380.782 85.144 380.806 82.9526C380.817 80.7495 380.882 78.5464 380.999 76.3433C381.011 76.3081 381.017 76.2671 381.017 76.2202C381.017 76.1851 381.017 76.144 381.017 76.0972C381.028 76.0737 381.034 76.0503 381.034 76.0269C381.034 75.7456 380.94 75.4761 380.753 75.2183C380.554 74.937 380.325 74.7261 380.067 74.5854ZM394.248 84.7983C394.096 84.564 393.896 84.353 393.65 84.1655C393.393 83.9897 393.111 83.9253 392.807 83.9722C391.623 84.1831 390.469 84.5112 389.344 84.9565C388.219 85.4136 387.146 85.9644 386.127 86.6089C386.15 85.9058 386.156 85.2026 386.145 84.4995C386.133 83.7964 386.109 83.0933 386.074 82.3901C387.199 81.9331 388.348 81.5405 389.52 81.2124C390.691 80.8726 391.881 80.6089 393.088 80.4214C393.369 80.3745 393.48 80.1812 393.422 79.8413C393.363 79.5132 393.287 79.2729 393.193 79.1206C393.041 78.8745 392.836 78.6636 392.578 78.4878C392.332 78.3003 392.057 78.2358 391.752 78.2944C390.756 78.4585 389.771 78.6694 388.799 78.9272C387.826 79.1851 386.865 79.4839 385.916 79.8237C385.893 79.4839 385.863 79.144 385.828 78.8042C385.793 78.4644 385.758 78.1304 385.723 77.8022C386.895 77.3921 388.066 77.0054 389.238 76.6421C390.422 76.2905 391.623 75.9917 392.842 75.7456C393.135 75.6987 393.252 75.5112 393.193 75.1831C393.146 74.855 393.07 74.6147 392.965 74.4624C392.801 74.228 392.596 74.0171 392.35 73.8296C392.15 73.6772 391.939 73.6011 391.717 73.6011C391.646 73.6011 391.582 73.6128 391.523 73.6362C390.352 73.8589 389.197 74.146 388.061 74.4976C386.924 74.8374 385.793 75.1948 384.668 75.5698C384.41 75.6636 384.158 75.7339 383.912 75.7808C383.713 75.8159 383.607 75.9741 383.596 76.2554C383.596 76.314 383.602 76.3726 383.613 76.4312C383.848 78.3647 384 80.3042 384.07 82.2495C384.141 84.1948 384.111 86.1401 383.982 88.0854C383.959 88.3667 384.094 88.7241 384.387 89.1577C384.68 89.5796 385.008 89.8433 385.371 89.9487C385.453 89.9839 385.535 90.0015 385.617 90.0015C385.652 90.0015 385.688 89.9956 385.723 89.9839C385.84 89.9722 385.951 89.9194 386.057 89.8257C387.217 88.8765 388.482 88.0854 389.854 87.4526C391.225 86.8081 392.654 86.3569 394.143 86.0991C394.389 86.0522 394.512 85.9116 394.512 85.6772C394.512 85.6304 394.506 85.5776 394.494 85.519C394.436 85.1909 394.354 84.9507 394.248 84.7983ZM407.444 75.605C407.444 75.3003 407.351 75.0132 407.163 74.7437C406.976 74.4624 406.753 74.2515 406.495 74.1108C406.331 74.0288 406.144 73.9878 405.933 73.9878C405.886 73.9878 405.845 73.9878 405.81 73.9878C405.54 74.0112 405.399 74.1753 405.388 74.48C405.364 75.6401 405.376 76.8003 405.423 77.9604C405.481 79.1323 405.505 80.2983 405.493 81.4585C405.493 81.4702 405.493 81.4819 405.493 81.4937C405.493 81.5054 405.493 81.5171 405.493 81.5288C404.333 81.564 403.19 81.6812 402.065 81.8804C400.929 82.0796 399.798 82.314 398.673 82.5835C398.72 81.4937 398.743 80.3979 398.743 79.2964C398.743 78.2065 398.72 77.1167 398.673 76.0269C398.661 75.7104 398.567 75.4175 398.392 75.1479C398.216 74.8784 397.993 74.6733 397.724 74.5327C397.548 74.4272 397.319 74.3804 397.038 74.3921C396.757 74.3921 396.616 74.5503 396.616 74.8667C396.71 77.0581 396.716 79.2495 396.634 81.4409C396.563 83.6323 396.405 85.8179 396.159 87.9976C396.147 88.0444 396.142 88.0854 396.142 88.1206C396.153 88.3784 396.247 88.6304 396.423 88.8765C396.622 89.1577 396.845 89.3687 397.091 89.5093C397.267 89.5913 397.454 89.6323 397.653 89.6323C397.688 89.6323 397.729 89.6323 397.776 89.6323C398.011 89.6089 398.151 89.4448 398.198 89.1401C398.269 88.4722 398.339 87.7925 398.409 87.1011C398.468 86.4214 398.515 85.7476 398.55 85.0796C399.698 84.7866 400.847 84.5171 401.995 84.271C403.144 84.0132 404.304 83.8433 405.476 83.7612C405.476 84.4526 405.464 85.144 405.44 85.8354C405.429 86.5269 405.405 87.2183 405.37 87.9097C405.358 88.2144 405.452 88.5015 405.651 88.771C405.851 89.0522 406.073 89.269 406.319 89.4214C406.519 89.5269 406.747 89.5679 407.005 89.5444C407.263 89.521 407.403 89.3569 407.427 89.0522C407.474 87.9858 407.503 86.9136 407.515 85.8354C407.526 84.7573 407.538 83.6792 407.55 82.6011C407.55 82.437 407.55 82.2729 407.55 82.1089C407.55 81.1011 407.526 80.0991 407.479 79.103C407.433 77.9429 407.421 76.7769 407.444 75.605ZM421.396 74.8315C421.279 74.7378 421.086 74.6323 420.816 74.5151C420.559 74.4097 420.359 74.4448 420.219 74.6206C418.859 76.2964 417.559 78.019 416.316 79.7886C415.074 81.5581 413.855 83.3394 412.66 85.1323C412.601 83.6323 412.59 82.1265 412.625 80.6147C412.672 79.103 412.818 77.5972 413.064 76.0972C413.123 75.7456 412.947 75.3706 412.537 74.9722C412.174 74.6206 411.84 74.4448 411.535 74.4448C411.512 74.4448 411.482 74.4448 411.447 74.4448C411.342 74.4683 411.248 74.521 411.166 74.603C411.096 74.6733 411.043 74.7905 411.008 74.9546C410.703 76.8647 410.551 78.7866 410.551 80.7202C410.551 80.978 410.551 81.23 410.551 81.4761C410.598 83.6675 410.685 85.853 410.814 88.0327C410.838 88.314 410.92 88.5835 411.06 88.8413C411.213 89.0874 411.406 89.2925 411.641 89.4565C411.828 89.5737 412.033 89.6499 412.256 89.6851C412.291 89.6851 412.32 89.6851 412.344 89.6851C412.531 89.6851 412.689 89.5913 412.818 89.4038C413.896 87.7749 414.986 86.146 416.088 84.5171C417.189 82.8882 418.32 81.2886 419.48 79.7183C419.445 80.0229 419.422 80.3394 419.41 80.6675C419.387 80.9956 419.369 81.3179 419.357 81.6343C419.31 82.7476 419.305 83.855 419.34 84.9565C419.375 86.0698 419.434 87.1772 419.516 88.2788C419.539 88.5718 419.68 88.8472 419.937 89.105C420.184 89.3745 420.441 89.5503 420.711 89.6323C421.004 89.7261 421.215 89.6968 421.344 89.5444C421.484 89.3921 421.543 89.1812 421.519 88.9116C421.367 86.7671 421.344 84.6343 421.449 82.5132C421.555 80.3921 421.766 78.271 422.082 76.1499C422.094 76.103 422.1 76.0562 422.1 76.0093C422.1 75.8218 422.035 75.6226 421.906 75.4116C421.742 75.1655 421.572 74.9722 421.396 74.8315ZM435.647 84.7983C435.495 84.564 435.296 84.353 435.05 84.1655C434.792 83.9897 434.511 83.9253 434.206 83.9722C433.022 84.1831 431.868 84.5112 430.743 84.9565C429.618 85.4136 428.546 85.9644 427.526 86.6089C427.55 85.9058 427.556 85.2026 427.544 84.4995C427.532 83.7964 427.509 83.0933 427.474 82.3901C428.599 81.9331 429.747 81.5405 430.919 81.2124C432.091 80.8726 433.28 80.6089 434.487 80.4214C434.768 80.3745 434.88 80.1812 434.821 79.8413C434.763 79.5132 434.686 79.2729 434.593 79.1206C434.44 78.8745 434.235 78.6636 433.977 78.4878C433.731 78.3003 433.456 78.2358 433.151 78.2944C432.155 78.4585 431.171 78.6694 430.198 78.9272C429.225 79.1851 428.265 79.4839 427.315 79.8237C427.292 79.4839 427.263 79.144 427.227 78.8042C427.192 78.4644 427.157 78.1304 427.122 77.8022C428.294 77.3921 429.466 77.0054 430.638 76.6421C431.821 76.2905 433.022 75.9917 434.241 75.7456C434.534 75.6987 434.651 75.5112 434.593 75.1831C434.546 74.855 434.47 74.6147 434.364 74.4624C434.2 74.228 433.995 74.0171 433.749 73.8296C433.55 73.6772 433.339 73.6011 433.116 73.6011C433.046 73.6011 432.981 73.6128 432.923 73.6362C431.751 73.8589 430.597 74.146 429.46 74.4976C428.323 74.8374 427.192 75.1948 426.067 75.5698C425.809 75.6636 425.557 75.7339 425.311 75.7808C425.112 75.8159 425.007 75.9741 424.995 76.2554C424.995 76.314 425.001 76.3726 425.013 76.4312C425.247 78.3647 425.399 80.3042 425.47 82.2495C425.54 84.1948 425.511 86.1401 425.382 88.0854C425.358 88.3667 425.493 88.7241 425.786 89.1577C426.079 89.5796 426.407 89.8433 426.77 89.9487C426.852 89.9839 426.934 90.0015 427.016 90.0015C427.052 90.0015 427.087 89.9956 427.122 89.9839C427.239 89.9722 427.35 89.9194 427.456 89.8257C428.616 88.8765 429.882 88.0854 431.253 87.4526C432.624 86.8081 434.054 86.3569 435.542 86.0991C435.788 86.0522 435.911 85.9116 435.911 85.6772C435.911 85.6304 435.905 85.5776 435.893 85.519C435.835 85.1909 435.753 84.9507 435.647 84.7983Z" fill="#A8B3C1"/>
<defs>
<clipPath id="clip0_4334_5278">
<rect width="90.6739" height="35.6756" fill="white" transform="translate(34.9844 98.418) rotate(-112.695)"/>
</clipPath>
</defs>
</svg>
